<?xml version="1.0" encoding="utf-8"?>
<!-- Generator: Adobe Illustrator 25.0.1, SVG Export Plug-In . SVG Version: 6.00 Build 0)  -->
<svg version="1.1" id="Capa_1" xmlns="http://www.w3.org/2000/svg" xmlns:xlink="http://www.w3.org/1999/xlink" x="0px" y="0px"
	 viewBox="0 0 989.6 863.3" style="enable-background:new 0 0 989.6 863.3;" xml:space="preserve">
<style type="text/css">
	.st0{fill:#F2F2F2;}
	.st1{fill:#BFD7FF;}
	.st2{fill:#788BFF;}
	.st3{fill:#FB5D64;}
	.st4{fill:#D7E0FF;stroke:#1B3C87;stroke-width:2.33;stroke-miterlimit:10;}
	.st5{fill:#BFD7FF;stroke:#D7E0FF;stroke-width:6.99;stroke-miterlimit:10;}
	.st6{fill:none;stroke:#B2C3FB;stroke-width:3.49;stroke-linecap:round;stroke-linejoin:round;}
	.st7{fill:#8088DC;}
	.st8{fill:#FFFFFF;}
	.st9{fill:none;stroke:#1B3C87;stroke-width:4.3;stroke-linecap:round;stroke-linejoin:round;}
	.st10{fill:#EECB55;}
	.st11{fill:#46DBC9;}
	.st12{fill:#1B3C87;}
	.st13{fill:#3C3744;}
	.st14{fill:none;stroke:#1B3C87;stroke-width:4.44;stroke-linecap:round;stroke-linejoin:round;}
	.st15{fill:#D7E0FF;}
	.st16{fill:none;stroke:#1B3C87;stroke-width:2.33;stroke-linecap:round;stroke-linejoin:round;}
	.st17{fill:#F4F7FF;}
</style>
<g id="Layer_2">
	<g id="Layer_1-2">
		<path class="st0" d="M902,392.3c8.9,115.1,42.8,221.5,6.5,290.1c-36.3,68.6-143.1,99.3-267.2,132.8
			c-124.4,33.5-266,69.5-373.8,19.2C159.8,783.9,86.2,646.9,110.6,536c24.5-111.1,147.1-195.8,236.8-289.4
			c89.5-93.7,146.2-196,237-233.7c91-37.6,216.2-10.5,270.8,65C909.4,153.4,893.3,277.2,902,392.3"/>
		<rect x="841" y="727.8" class="st1" width="55.2" height="73.4"/>
		<rect x="109.2" y="121.5" class="st1" width="689" height="521.4"/>
		<path class="st2" d="M142.8,142.8c0,5.4-4.4,9.8-9.8,9.8s-9.8-4.4-9.8-9.8c0-5.4,4.4-9.8,9.8-9.8c0,0,0,0,0,0
			C138.4,133,142.8,137.4,142.8,142.8"/>
		<path class="st2" d="M180.5,142.8c0,5.4-4.4,9.8-9.8,9.8s-9.8-4.4-9.8-9.8s4.4-9.8,9.8-9.8c0,0,0,0,0,0
			C176.1,133,180.5,137.4,180.5,142.8"/>
		<path class="st2" d="M218.3,142.8c0,5.4-4.4,9.8-9.8,9.8s-9.8-4.4-9.8-9.8c0-5.4,4.4-9.8,9.8-9.8l0,0
			C213.9,133,218.3,137.4,218.3,142.8"/>
		<rect x="848.8" y="755" class="st3" width="13.9" height="13.9"/>
		<path class="st4" d="M855.7,755v-27.2"/>
		<circle class="st5" cx="895.3" cy="765.1" r="18.9"/>
		<rect x="473.6" y="157.4" transform="matrix(0.5 -0.866 0.866 0.5 39.4695 716.6868)" class="st6" width="333.5" height="333.5"/>
		<path class="st7" d="M214.7,658.1c0-1.8-3.9-9.8-13.9-9.8c-5.8,0-14.7,5.5-14.7,6.2c7,1.5,13.5,10.6,17.8,10.6
			C208.4,665.1,214.7,662.6,214.7,658.1"/>
		<rect x="935.2" y="785" class="st7" width="91.9" height="25.9"/>
		<path class="st7" d="M872.1,181.4c10.3-36.8-11.2-75-48-85.3s-75,11.2-85.3,48c-3.4,12.2-3.4,25.1,0,37.3H872.1z"/>
		<path class="st8" d="M513.6,549.5c0,9-7.8,40.9-43,40.9c-31.9,0-113.1-137.4-115.6-142.7c-8.5-0.8-23.1-11.7-27.3-26.6
			c-0.6-2.3,9-15.3,19.5-12.2c2.5,0.7-8.1-12.5-9.6-14.8c-3.3-5.2-1.3-12.3,0.3-12.3s22.7,28.6,24.3,28.8s13.9,5.8,14.6,7
			s-0.1,18.4,2.3,21.6s84.6,90.8,84.6,90.8c0.8-8.4,9.2-31.5,10.5-33.9S513.6,523.1,513.6,549.5"/>
		<path class="st9" d="M341,413.7c-1.8-2.4-2.9-9.7,2.8-9.8c19.2,0,29.1,5.9,29.1,8.9s0,18,1.6,20.7c0.5,0.9,8.6,9.8,19.7,21.8
			c5,5.7,13.2,14.4,13.2,14.4c22.4,24.3,48.5,52.2,50.8,54.8c0.8-5.1,6.5-23.7,9.2-29.4"/>
		<path class="st9" d="M413.6,539.3c-29.9-39.3-60.1-90.5-64.1-96.9"/>
		<path class="st9" d="M502.3,562.3c-2,5.2-11,22.6-38.4,22.6c-5.1,0-11.6-3.8-18.8-10.1"/>
		<path class="st10" d="M533.1,356.9c-2-11.5-10.7-35.2-10.7-56c0-31.2,19.2-48.9,55.5-48.9c25.5,0,35.7,16.7,39.5,25
			c3.2,6.9,1.3,14.5,4.9,21.7c14.4,28.6,26.2,25.7,47.2,61.1c5.1,8.6,8.1,38.6,6.4,48.1c-9,0.4-21,4.5-21,4.5
			c-4.4,4.6-6.9,10.8-6.8,17.2c-4.2-3.5-26.2-21.2-51.5-21.2c-6.8,0-39.3,5.9-47.8,12.3c-1.5-2-8.4-5.8-11.1-5.8
			c-4.8,0.6-8.7,1-12.5,2.3c-4.2-14.5,8.1-33.9,8.1-56.5C533.5,359.5,533.3,358.2,533.1,356.9"/>
		<path class="st11" d="M539.2,416c-52.6,0-70.4,71.5-70.4,78.7s40.4,32.4,46,32.4c5.6,0,39.5-83.3,39.5-88.7S549.6,416,539.2,416"
			/>
		<path class="st9" d="M502.3,420.4c-28.5,19.9-39,63.2-39,68.8c0,7.2,40.4,32.3,46,32.3c5.6,0,39.5-83.3,39.5-88.7
			s-4.7-22.3-15.1-22.3"/>
		<path class="st11" d="M591.1,409.7c128.1-8.4,110.1,265,100.2,275.8c-9.8,10.8-120.7,43.2-134,36.2
			C544,714.8,427.1,420.5,591.1,409.7"/>
		<path class="st8" d="M609.6,352.3c0,0-2.1,12.8-2.2,16.8c-0.5,6.7,2.3,47.3,3.3,54.2c-4,4.5-32.9,8.5-36.2,6
			c0.1-5.6-2.8-34.4-3.9-38.4c-21.7-2.8-38.6-28.8-38.6-60.5c0-6.4,0.7-12.7,2.1-18.9c6.5-2.1,16-12.4,17.4-16.1l-1.5-3.7
			c6.1,19.8,43.2,38,56.9,39.6l-1.5,2.3c1.9-3.9,5.4-6.4,9.3-6.4c6,0,10.9,6.1,10.9,13.6s-4.9,13.6-10.9,13.6
			c-3-0.1-5.7-1.5-7.6-3.8"/>
		<path class="st9" d="M543.9,373.6c-10.4-11.1-17.1-28.8-17.1-48.8c0-6.4,0.7-12.7,2.1-18.9"/>
		<path class="st9" d="M593.2,375.2c-6.8,6.6-15,10.4-23.8,10.4c-3.8,0-7.6-0.7-11.1-2.1"/>
		<path class="st9" d="M600.2,328.1c1.9-3.9,5.4-6.5,9.3-6.5c6.1,0,10.9,6.1,10.9,13.6s-4.9,13.6-10.9,13.6c-3-0.1-5.7-1.5-7.6-3.8"
			/>
		<path class="st9" d="M569.4,312.1c12.1,7.6,25.3,12.9,32.4,13.7"/>
		<path class="st9" d="M544.9,286.2c1.6,5.1,5.3,10.2,10.1,14.8"/>
		<path class="st9" d="M546.4,289.9c-1.4,3.7-10.9,14-17.4,16.1"/>
		<path class="st9" d="M624,305.3c11.5,16.5,22.6,19.5,40,48.9c5.1,8.6,8.1,38.2,6.5,47.6"/>
		<path class="st9" d="M570.7,246.4h1.6c25.6,0,35.7,16.7,39.6,25c1.8,3.9,2,8,2.5,12.1"/>
		<path class="st9" d="M519.8,411.6c-4.2-14.5,8.1-33.9,8.1-56.5c0-9-11.1-36.4-11.1-59.9c0-21.2,8.9-36.2,26.1-43.6"/>
		<path class="st9" d="M603,387.1c-0.7-10.6-1.1-20.5-0.9-23.6"/>
		<path class="st9" d="M588.8,423.1c7.6-1.3,14.8-3.3,16.7-5.4c-0.4-2.5-1-9.3-1.6-17.3"/>
		<path class="st9" d="M565.5,385.4c1.1,4,3.9,32.8,3.9,38.4"/>
		<path class="st9" d="M523.3,432.6c10.6-12.6,25.2-21.8,44.8-26.1"/>
		<path class="st9" d="M500.4,546c-2.8-29.8-1.7-58.9,6.4-82.9"/>
		<path class="st9" d="M692.1,635.2c-1.2,24.8-4,42.1-6.3,44.7c-9.8,10.8-120.7,43.2-134,36.2c-5.6-2.9-29.3-56.2-43-118"/>
		<path class="st9" d="M674.3,479.5c12.7,37,17.5,81.5,18.2,119.3"/>
		<path class="st9" d="M604.3,405c13.9,2.4,26.8,8.9,36.9,18.7"/>
		<path class="st12" d="M561.8,322.4c0,3.3-1.3,6-2.9,6c-1.6,0-2.9-2.7-2.9-6s1.3-6,2.9-6C560.5,316.4,561.8,319.1,561.8,322.4"/>
		<path class="st9" d="M546.4,328.5c-0.4,2.7-2.5,13.8-7,18.3"/>
		<path class="st9" d="M554.7,361.3c1.9,0.3,9.4-2.1,11.2-7.3"/>
		<path class="st8" d="M729.8,515.1c0,0,29.8,85.8,29.8,95.4s-89.3,74.2-89.3,74.2l-45.6,3.8l79.2-81.3l-29.7-74L729.8,515.1z"/>
		<path class="st9" d="M668.6,527.6c1.7,4.3,29.7,74,29.7,74l-77.9,80.5"/>
		<path class="st9" d="M747.6,582.1c3.8,12.4,6.5,21.6,6.5,22.8c0,3.8-14.3,15.6-14.3,15.6"/>
		<path class="st9" d="M724.2,507.8c0,0,4.7,14.7,10.4,32.7"/>
		<path class="st11" d="M648.1,415.5c52.7-14.9,95.4,76.9,90.6,89.5c-4.8,12.6-65.9,33.1-76.3,27.8
			C652.1,527.6,613.8,425.2,648.1,415.5"/>
		<path class="st9" d="M668.6,527.6c-5.4,0.8-9.7,0.8-11.8-0.3c-3.2-1.6-9-12.5-14.6-27.1"/>
		<path class="st9" d="M731.5,486.8c1.8,6,2.4,10.5,1.6,12.7c-2.5,6.6-20.7,15.5-38.8,21.5"/>
		<path class="st9" d="M629.2,449.8c-2.2-19.6,0.4-36.2,13.3-39.9c29.1-8.2,55.2,16.1,71.9,41.7"/>
		<path class="st13" d="M494.3,655.1c52.9,0,247.1,97.8,247.1,103.9s1.1,43.8-5.7,43.8c-206,0-298.3-39.6-298.3-106.8
			C437.5,669.2,465.1,655.1,494.3,655.1"/>
		<path class="st8" d="M752.3,760.6c-4.1,0-6.5,38-4,42.2c7.1,2.8,35.2,7,39.3,7c4.2,0,28.6-4.2,28.6-28
			C816.2,765.8,791.6,760.6,752.3,760.6"/>
		<path class="st9" d="M552.5,665.9c76.8,28.1,183.4,83,183.4,87.5c0,6.1,1,43.8-5.7,43.8c-206,0-298.3-39.6-298.3-106.8
			c0-26.8,27.6-40.9,56.9-40.9c4.7,0.1,9.5,0.6,14.1,1.6"/>
		<path class="st9" d="M746.7,755c-1.4,0-2.7,4.7-3.6,10.9"/>
		<path class="st9" d="M743.1,765.9c-1.6,11.6-2.1,28.6-0.4,31.3c7.1,2.8,35.2,7,39.3,7c4.2,0,28.6-4.2,28.6-28
			c0-12.5-15.2-18.4-40.9-20.4"/>
		<path class="st9" d="M337.8,380.8c-1.4-1.7-2.7-3.5-3.8-5.5c-1.5-3.6-9.6,3.8-1.9,15.1"/>
		<path class="st9" d="M359.5,405.5c-1.9-1.5-8.4-8.7-14.4-15.8"/>
		<path class="st9" d="M332.8,403.4c-8.3,3.2,3.9,18.7,10,24.3"/>
		<path class="st9" d="M324.2,411.6c-5,6.5,9.2,20.1,13.3,22.1"/>
		<path class="st13" d="M772.2,617.2c28,0,44,28,44,44.7c0,95-273.4,140.9-280,140.9c-6.5,0-14.1-36.2-14.1-39
			S713.4,617.2,772.2,617.2"/>
		<path class="st9" d="M569.1,718.5c31.7-22.5,73.1-50.4,111.1-72"/>
		<path class="st9" d="M689.8,756.5c-74.1,27.3-155.6,40.7-159.1,40.7c-6.5,0-14.1-36.2-14.1-39c0-0.6,8.9-7.8,23.5-18.7"/>
		<path class="st9" d="M711.3,629.8c22.6-11.1,42.2-18.2,55.3-18.2c28,0,44,28,44,44.7c0,23.2-16.3,43.4-41,60.8"/>
		<path class="st8" d="M510.9,765.8c-5.6,0-64.9,10-64.9,28.5c0,21.1,12.8,29.7,19.9,29.7s50.9-9.6,54.8-16.3
			C524.8,801,510.9,765.8,510.9,765.8"/>
		<path class="st9" d="M495.2,811.1c9.9-2.9,18.4-6.2,20-8.9c4-6.7-9.8-41.9-9.8-41.9c-5.6,0-64.9,10-64.9,28.5
			c0,21.1,12.8,29.7,19.9,29.7c2.5-0.1,5-0.5,7.4-0.9"/>
		<path class="st9" d="M864.3,173.6c10.3-36.8-11.2-75-48-85.3s-75,11.2-85.3,48c-3.4,12.2-3.4,25.1,0,37.3H864.3z"/>
		<rect x="928.5" y="778.3" class="st14" width="91.9" height="25.9"/>
		<path class="st14" d="M974.4,778.3V49.5H797.6v36.3"/>
		<rect x="130.1" y="791.2" class="st15" width="188.4" height="27.2"/>
		<rect x="158.9" y="769.3" class="st7" width="188.4" height="22.6"/>
		<rect x="137.2" y="746.8" class="st15" width="188.4" height="22.6"/>
		<path class="st7" d="M243.7,634.7c-4.6-0.4-10.9-18.1-5.1-27c12.1-18.7,43.4-24.7,55.1-51.2C293.5,565.6,302.8,639.5,243.7,634.7"
			/>
		<path class="st16" d="M224.3,699.6c0-32.4,24.3-84.1,39.8-94.8"/>
		<path class="st16" d="M250.2,621.3c-1.1-2.3-2.8-9.7-2.2-13.9"/>
		<path class="st16" d="M258.4,610.1c1.9,0.5,10.6-0.1,15.5-1.5"/>
		<path class="st16" d="M227.5,675.7c-0.1-3.1-4.9-19.6-23.1-17.5"/>
		<path class="st16" d="M209.7,658.1c-0.6-1.4-3.3-4.3-4.6-4.8"/>
		<path class="st3" d="M246.8,746.8l9.7-47.1h-61.6l9.7,47.1H246.8z"/>
		<path class="st6" d="M39.3,271.8l114.3,288.7l182.8-202.8L39.3,271.8z"/>
		<path class="st17" d="M220.6,252.1v85.5h38.2l18.7,32.2l18.7-32.2h38.2v-85.5H220.6z"/>
		<path class="st3" d="M260.6,293.6c0,3.3-2.7,6-5.9,6c-3.3,0-6-2.7-6-5.9c0-3.3,2.7-6,5.9-6c0,0,0,0,0,0
			C258,287.7,260.6,290.3,260.6,293.6C260.6,293.6,260.6,293.6,260.6,293.6"/>
		<path class="st3" d="M283.5,293.6c0,3.3-2.7,6-5.9,6c-3.3,0-6-2.7-6-5.9c0-3.3,2.7-6,5.9-6c0,0,0,0,0,0
			C280.8,287.7,283.5,290.3,283.5,293.6C283.5,293.6,283.5,293.6,283.5,293.6"/>
		<path class="st3" d="M306.3,293.6c0,3.3-2.7,5.9-5.9,5.9s-5.9-2.7-5.9-5.9s2.7-5.9,5.9-5.9S306.3,290.3,306.3,293.6L306.3,293.6"
			/>
	</g>
</g>
</svg>
