<?xml version="1.0" encoding="utf-8"?>
<!-- Generator: Adobe Illustrator 25.0.1, SVG Export Plug-In . SVG Version: 6.00 Build 0)  -->
<svg version="1.1" id="Capa_1" xmlns="http://www.w3.org/2000/svg" xmlns:xlink="http://www.w3.org/1999/xlink" x="0px" y="0px"
	 viewBox="0 0 1001.8 1003.9" style="enable-background:new 0 0 1001.8 1003.9;" xml:space="preserve">
<style type="text/css">
	.st0{fill:none;stroke:#FFFFFF;stroke-width:6;stroke-linecap:round;stroke-linejoin:round;stroke-dasharray:36;}
	.st1{fill:#FFFFFF;}
	.st2{fill:none;stroke:#1B3C87;stroke-width:5.43;stroke-linecap:round;stroke-linejoin:round;}
	.st3{fill:#3B3744;}
	.st4{fill:#5465FF;}
	.st5{fill:none;stroke:#FFFFFF;stroke-width:5.3;stroke-linecap:round;stroke-linejoin:round;}
	.st6{fill:#46DBC9;}
	.st7{fill:none;stroke:#1B3C87;stroke-width:5.3;stroke-linecap:round;stroke-linejoin:round;}
	.st8{fill:none;stroke:#B6C6FC;stroke-width:3.95;stroke-linecap:round;stroke-linejoin:round;}
	.st9{fill:#FB5D64;}
	.st10{fill:#1B3C87;}
</style>
<g id="Layer_2">
	<g id="vector">
		<path class="st0" d="M143.8-7.2C50.2,66,85,362.7,276.9,400.2c224.8,43.8,240-185.6,410.4-165.1C835.5,253,880,413.2,788.2,513.7"
			/>
		<path class="st1" d="M348.6,499.9c-11-4.2-65.9-48.5-70.2-55.5s-32.7-51.4-32.7-51.4l47.8-36.5c0,0,43.1,38.7,51.5,46.5
			s40.8,20.2,44.3,20.2S348.6,499.9,348.6,499.9z"/>
		<path class="st2" d="M336,487.3c-6.6-3.8-59.4-47.7-64.6-52.9s-26-38.3-29.3-46.2"/>
		<path class="st3" d="M697.3,795.1c-11.3,5-213.2,51.3-248.2,51.7c8.1,45.2,38,133.6,40.1,142.5c17.9-4.3,236.3-86.5,244.4-91.9
			C726.9,884.5,701,821.4,697.3,795.1z"/>
		<path class="st4" d="M80.8,292.7L461.5,86.8c39.2-21.2,88.2-6.6,109.4,32.6v0c21.2,39.2,6.6,88.2-32.6,109.4L157.5,434.7
			c-39.2,21.2-88.2,6.6-109.4-32.6l0,0C26.9,362.9,41.5,313.9,80.8,292.7z"/>
		<polyline class="st5" points="283.6,304.8 242.5,291.6 255.7,250.5 		"/>
		<polyline class="st5" points="352,201 393,214.2 379.9,255.3 		"/>
		<line class="st5" x1="294" y1="197.3" x2="323.5" y2="319.4"/>
		<path class="st1" d="M257.3,201.6c-7.7-16.7-55.6,0.9-76,17.9c5.7,18.7,11.4,35.1,14.7,38.8C200.1,258.8,259.8,228.5,257.3,201.6z
			"/>
		<path class="st6" d="M474.7,455.2c-28.5-23-67.8-38.4-79.2-43.1c-8.3,3.6-18.9,22.4-28.2,43.8c-16.7,31.4-22,69.6-22,69.6
			c25.9,16.1,79.7,26.4,89.2,26.4S474.7,455.2,474.7,455.2z"/>
		<path class="st6" d="M527.4,431.1c100.3-24,146.1,263.2,167.9,363c-21.3,15.9-210.5,63.5-248.2,51.7
			C377.6,663,353.5,472.8,527.4,431.1z"/>
		<path class="st7" d="M519.4,421.1c100.3-24,146.1,263.2,167.9,363c-21.3,15.9-210.5,63.5-248.2,51.7
			C369.6,653,345.5,462.8,519.4,421.1z"/>
		<path class="st1" d="M581.4,610.4c-5.3,7.6-53.3,61.8-60.9,65.6s-37.8,3.3-43.6,0c-34-19.3-143.4-189.4-151.3-205.5
			s-19.3-38.9-29.6-47.4c-1.6-12.5,7.3-28.8-8.6-48.6c2.9-13.9-5.2-75.5,41-50.7c12.2,6.6,28.9,32.7,26.6,54.2s-5.1,45.9-0.5,55.9
			S484.6,577.4,487.8,579c4-5.2,19.9-26.1,19.9-26.1L581.4,610.4z"/>
		<path class="st6" d="M628.4,467.5c48.5,38.5-10.5,127.6-32.3,152.1c-10,0.4-96.9-50.7-101.3-71.7
			C507.4,529.1,574.4,424.6,628.4,467.5z"/>
		<path class="st2" d="M360.3,524.5c-7.6-3-15-6.7-22-10.9c-0.6-2.4,0.3-7.7,3.2-17.8"/>
		<path class="st7" d="M361.2,441.9c9.4-21.4,19.1-38.2,27.3-41.8c11.4,4.7,48.8,18.7,77.4,41.6"/>
		<path class="st2" d="M426.7,512.9c-34.1-34.6-72.8-75.8-79.2-91.1c-4.3-9-1.3-68.1,6.9-80.8"/>
		<path class="st2" d="M494.9,549.1c-5.2,5.5-9.9,12.6-14,17.9c-1.2-1.4-7.9-8-17.8-17.8"/>
		<path class="st2" d="M522.7,656.1c-4.2,4.2-7.6,7.1-9.2,7.9c-7.6,3.8-37.8,3.3-43.6,0c-34-19.3-143.4-189.4-151.3-205.5
			s-19.3-38.9-29.6-47.4"/>
		<path class="st2" d="M571.3,602.4c-1.7,2.4-7.3,9.1-14.5,17.2"/>
		<path class="st2" d="M335,368.9c-1-17-11.1-53.2-18.7-61"/>
		<path class="st2" d="M317.8,368.9c-2.7-11.1-13.5-45.8-24.6-63"/>
		<path class="st2" d="M303,377.2c-0.5-5.9-9.9-30.8-16.5-37.7"/>
		<path class="st2" d="M291.7,389.3c-1.2-6.1-8.9-22.6-14.8-28.3"/>
		<path class="st7" d="M723.6,886.5c-5-10.8-31.6-79.6-36.4-102.4"/>
		<path class="st7" d="M586.6,935.1c-8-6.5-39.3-47-52.6-65.3"/>
		<path class="st7" d="M479.2,978.4c-4.6-10.2-36-117.4-40.1-142.5"/>
		<path class="st2" d="M376.1,413.2c-8.2-3.6-24.8-11.9-30.6-13.1"/>
		<polyline class="st4" points="171.5,427.1 236.3,480.2 227.4,396.9 		"/>
		<path class="st2" d="M244.8,187.9c-3.9-4.2-38.8-19.1-11.8,41"/>
		<path class="st2" d="M219.7,196.4c-4-4.2-38.8-19.1-11.8,41"/>
		<path class="st2" d="M190.4,210.4c-3.8-3.5-33.5-13-1.4,42"/>
		<polyline class="st4" points="917,650.7 993.4,619.6 774.8,542.4 847.2,762.6 879.9,686.9 		"/>
		<polyline class="st4" points="917,650.7 1002.1,737.6 965,773.9 879.9,686.9 		"/>
		<path class="st7" d="M530.4,577.8c-21.3-14.4-40.6-30.3-42.6-39.9"/>
		<path class="st7" d="M635.8,526.1c-9.8,34.6-34.3,69.5-46.8,83.4c-4.1,0.2-20.8-8.1-39.5-19.4"/>
		<path class="st7" d="M513.5,502.3c27.5-34.1,70.8-74.3,108-44.8c1.5,1.2,2.9,2.4,4.2,3.8"/>
		<polygon class="st8" points="801.2,2.2 705.4,98.5 934.5,151.5 		"/>
		
			<rect x="148.3" y="754.7" transform="matrix(9.931970e-02 -0.9951 0.9951 9.931970e-02 -634.7952 979.7484)" class="st8" width="151" height="171.6"/>
		<circle class="st8" cx="117.8" cy="908.7" r="83"/>
		<path class="st2" d="M581.5,165.4c-4.3-15.6-22.6-18.9-31.8,14c-4-11.5-12.3-27.9-21.1-27.9c-5.4,0-13,5.6-18.8,15.9"/>
		<path class="st1" d="M575.9,361.9c-4.2,14.2-18.2,61.1-18.6,93.7c-6.8,4-52.2,5.7-64.5-3.4c3.4-14.4,9.1-55.2,7.6-69.4
			C506.7,381.5,575.9,361.9,575.9,361.9z"/>
		<path class="st7" d="M493.7,406.7c1.5-12.8,2.4-25.3,1.7-31.9c6.4-1.3,75.5-20.9,75.5-20.9c-4.2,14.2-18.2,61.1-18.6,93.7
			c-4.1,2.5-22.8,4-39.5,2.8"/>
		
			<ellipse transform="matrix(0.2101 -0.9777 0.9777 0.2101 115.5508 765.9046)" class="st1" cx="531.8" cy="311.4" rx="82.5" ry="64.5"/>
		<path class="st2" d="M529.3,385.3c-6.9,1.4-14,1.3-20.9-0.2c-17.7-3.8-31.7-16.6-39.9-34"/>
		<path class="st2" d="M461.4,326.9c-1.7-12-1.2-24.2,1.3-36c9.6-44.6,45.6-74.6,80.4-67.1s55.3,49.7,45.8,94.2
			c-2,9.4-5.3,18.4-9.8,26.9"/>
		<path class="st9" d="M596.5,331.8c1.3-4.3,14.3-28.9,13-68c-0.8-25.7-21.2-76.3-21.1-83c0.2-21.3-22.2-31-32.7,6.6
			c-4-11.5-12.3-27.9-21.1-27.9s-22.9,14.4-26.5,39.1c-1.2-7.9-8.3-17-12.4-17s-13.8,0.6-13.4,34.2c-3.2-4.1-10.3-6.5-14-6.5
			c-7.5,0-18.1,36.1,11.9,59.4c1.7-3.2,6.4-9.9,6.7-9.9c5.5,1.5,58.8,14.8,91.1,19.2c-0.8,4.9-11.9,55.6,0.4,71
			C586.6,346.1,593.1,339.8,596.5,331.8z"/>
		<path class="st2" d="M501.7,303.2c-1.4,5.5-9.7,14.6-13.9,16.2"/>
		<ellipse transform="matrix(0.3453 -0.9385 0.9385 0.3453 70.25 700.2256)" class="st10" cx="537" cy="299.8" rx="6.9" ry="4.1"/>
		<path class="st2" d="M525.1,344.9c-1.6,3.5-11.3,11.8-16.5,12.4"/>
		<path class="st2" d="M572.1,270.1c-2.2,10.9-3.8,22-4.9,33.1"/>
		<path class="st2" d="M502.1,190.6c-1.2-7.9-8.3-17-12.4-17s-13.8,0.6-13.4,34.2c-3.2-4.1-10.3-6.5-14-6.5
			c-7.5,0-18.1,36.1,11.9,59.4c1.7-3.2,6.4-9.9,6.7-9.9c4.5,1.2,41.4,10.4,72.3,16.1"/>
		<path class="st2" d="M594.8,312.6c6.5-18.2,9.4-37.5,8.7-56.8c-0.5-14.4-7-36.5-12.7-54.4"/>
		<circle class="st1" cx="582.1" cy="340.8" r="16.5"/>
		<path class="st2" d="M574.2,320.3c8.6-2.9,18,1.8,20.9,10.4c2.9,8.6-1.8,18-10.4,20.9c-3.8,1.3-7.9,1.1-11.6-0.5"/>
	</g>
</g>
</svg>
