<?xml version="1.0" encoding="utf-8"?>
<!-- Generator: Adobe Illustrator 25.0.1, SVG Export Plug-In . SVG Version: 6.00 Build 0)  -->
<svg version="1.1" id="Capa_1" xmlns="http://www.w3.org/2000/svg" xmlns:xlink="http://www.w3.org/1999/xlink" x="0px" y="0px"
	 viewBox="0 0 50 62.5" style="enable-background:new 0 0 50 62.5;" xml:space="preserve">
<style type="text/css">
	.st0{fill:none;stroke:#788BFF;stroke-width:2;stroke-miterlimit:10;}
	.st1{fill:none;stroke:#788BFF;stroke-width:2;stroke-miterlimit:10;stroke-dasharray:2,2;}
</style>
<g>
	<polygon class="st0" points="44,49 25,49 6,49 2,45 2,41 25,41 48,41 48,45 	"/>
	<rect x="4" y="11" class="st0" width="42" height="30"/>
	<line class="st1" x1="20" y1="45" x2="30" y2="45"/>
	<g>
		<polygon class="st0" points="25,20.6 27.8,24.8 32.6,26.1 29.5,30 29.7,35 25,33.3 20.3,35 20.5,30 17.4,26.1 22.2,24.8 		"/>
		<g>
			<polyline class="st0" points="30,21.6 32.4,18 35.2,22.2 40,23.5 36.9,27.5 37.1,32.5 33.3,31.1 			"/>
			<polyline class="st0" points="20,21.6 17.6,18 14.8,22.2 10,23.5 13.1,27.5 12.9,32.5 16.7,31.1 			"/>
		</g>
	</g>
</g>
</svg>
