<?xml version="1.0" encoding="utf-8"?>
<!-- Generator: Adobe Illustrator 25.0.1, SVG Export Plug-In . SVG Version: 6.00 Build 0)  -->
<svg version="1.1" id="Capa_1" xmlns="http://www.w3.org/2000/svg" xmlns:xlink="http://www.w3.org/1999/xlink" x="0px" y="0px"
	 viewBox="0 0 50 62.5" style="enable-background:new 0 0 50 62.5;" xml:space="preserve">
<style type="text/css">
	.st0{fill:none;stroke:#788BFF;stroke-width:2;stroke-miterlimit:10;}
</style>
<g>
	<path class="st0" d="M36,39.2c-13.5-5.8-11.9-19-11.9-19c8.7-2.6,11.9-6,11.9-6s3.2,3.4,11.9,6C47.9,20.2,49.5,33.5,36,39.2z"/>
	<path class="st0" d="M36,33.7c-4.9-2.8-6.4-7-6.9-9.9c3-1.1,5.2-2.3,6.9-3.3c1.6,1,3.9,2.2,6.9,3.3C42.4,26.6,40.9,30.9,36,33.7z"
		/>
	<g>
		<path class="st0" d="M37.5,38.5c-2,7.9-9,13.7-17.5,13.7c-9.9,0-18-8.1-18-18s8.1-18,18-18c3.2,0,6.2,0.8,8.8,2.3"/>
		<path class="st0" d="M24.6,26.1c-1.5,0.4-3,0.6-4.6,0.6c-5,0-9.5-2-12.7-5.3"/>
		<path class="st0" d="M32.7,47c-3.3-3.3-7.8-5.3-12.7-5.3c-5,0-9.5,2-12.7,5.3"/>
		<path class="st0" d="M29.3,34.8c-0.1,9.7-4.2,17.4-9.3,17.4c-5.2,0-9.3-8.1-9.3-18s4.1-18,9.3-18c2.1,0,4,1.3,5.5,3.5"/>
		<line class="st0" x1="28.8" y1="34.2" x2="2" y2="34.2"/>
		<line class="st0" x1="20" y1="52.2" x2="20" y2="16.2"/>
	</g>
</g>
</svg>
